<mxfile host="Electron" agent="Mozilla/5.0 (Windows NT 10.0; Win64; x64) AppleWebKit/537.36 (KHTML, like Gecko) draw.io/24.7.17 Chrome/128.0.6613.36 Electron/32.0.1 Safari/537.36" version="24.7.17">
  <diagram name="Page-1" id="bMkD8laKVnPlljFrSJmQ">
    <mxGraphModel dx="8880" dy="3493" grid="1" gridSize="10" guides="1" tooltips="1" connect="1" arrows="1" fold="1" page="1" pageScale="1" pageWidth="850" pageHeight="1100" math="0" shadow="0">
      <root>
        <mxCell id="0" />
        <mxCell id="1" parent="0" />
        <mxCell id="zvgr8dJOfh5WWKo-yath-3" value="" style="edgeStyle=orthogonalEdgeStyle;rounded=0;orthogonalLoop=1;jettySize=auto;html=1;" parent="1" source="zvgr8dJOfh5WWKo-yath-1" target="zvgr8dJOfh5WWKo-yath-2" edge="1">
          <mxGeometry relative="1" as="geometry" />
        </mxCell>
        <mxCell id="zvgr8dJOfh5WWKo-yath-1" value="START" style="strokeWidth=2;html=1;shape=mxgraph.flowchart.terminator;whiteSpace=wrap;fontSize=20;fontStyle=1" parent="1" vertex="1">
          <mxGeometry x="375" y="30" width="155" height="70" as="geometry" />
        </mxCell>
        <mxCell id="zvgr8dJOfh5WWKo-yath-5" value="" style="edgeStyle=orthogonalEdgeStyle;rounded=0;orthogonalLoop=1;jettySize=auto;html=1;" parent="1" source="zvgr8dJOfh5WWKo-yath-2" target="zvgr8dJOfh5WWKo-yath-4" edge="1">
          <mxGeometry relative="1" as="geometry" />
        </mxCell>
        <mxCell id="zvgr8dJOfh5WWKo-yath-2" value="HALO! SELAMAT DATANG&amp;nbsp;&lt;div&gt;DI NETFLIX&lt;/div&gt;&lt;div&gt;1. REGISTER&lt;/div&gt;&lt;div&gt;2. LOGIN&lt;/div&gt;&lt;div&gt;3. KELUAR&lt;/div&gt;" style="shape=parallelogram;perimeter=parallelogramPerimeter;whiteSpace=wrap;html=1;fixedSize=1;strokeWidth=2;" parent="1" vertex="1">
          <mxGeometry x="343.75" y="200" width="217.5" height="105" as="geometry" />
        </mxCell>
        <mxCell id="zvgr8dJOfh5WWKo-yath-7" value="" style="edgeStyle=orthogonalEdgeStyle;rounded=0;orthogonalLoop=1;jettySize=auto;html=1;" parent="1" source="zvgr8dJOfh5WWKo-yath-4" target="zvgr8dJOfh5WWKo-yath-6" edge="1">
          <mxGeometry relative="1" as="geometry" />
        </mxCell>
        <mxCell id="zvgr8dJOfh5WWKo-yath-10" value="" style="edgeStyle=orthogonalEdgeStyle;rounded=0;orthogonalLoop=1;jettySize=auto;html=1;" parent="1" source="zvgr8dJOfh5WWKo-yath-4" target="zvgr8dJOfh5WWKo-yath-9" edge="1">
          <mxGeometry relative="1" as="geometry" />
        </mxCell>
        <mxCell id="zvgr8dJOfh5WWKo-yath-4" value="PILIHAN = 1" style="rhombus;whiteSpace=wrap;html=1;strokeWidth=2;fontSize=20;" parent="1" vertex="1">
          <mxGeometry x="363.75" y="410" width="177.5" height="162.5" as="geometry" />
        </mxCell>
        <mxCell id="W5-GPD6WuPdEDDvHQBN7-15" style="edgeStyle=orthogonalEdgeStyle;rounded=0;orthogonalLoop=1;jettySize=auto;html=1;exitX=1;exitY=0.5;exitDx=0;exitDy=0;entryX=1;entryY=0.5;entryDx=0;entryDy=0;" parent="1" source="zvgr8dJOfh5WWKo-yath-6" target="zvgr8dJOfh5WWKo-yath-2" edge="1">
          <mxGeometry relative="1" as="geometry">
            <Array as="points">
              <mxPoint x="1040" y="491" />
              <mxPoint x="1040" y="253" />
            </Array>
          </mxGeometry>
        </mxCell>
        <mxCell id="zvgr8dJOfh5WWKo-yath-6" value="USERNAME :&amp;nbsp;&lt;div style=&quot;font-size: 25px;&quot;&gt;PASSWORD :&lt;/div&gt;" style="shape=parallelogram;perimeter=parallelogramPerimeter;whiteSpace=wrap;html=1;fixedSize=1;strokeWidth=2;fontSize=25;" parent="1" vertex="1">
          <mxGeometry x="690" y="426.88" width="290" height="128.75" as="geometry" />
        </mxCell>
        <mxCell id="zvgr8dJOfh5WWKo-yath-12" value="" style="edgeStyle=orthogonalEdgeStyle;rounded=0;orthogonalLoop=1;jettySize=auto;html=1;" parent="1" source="zvgr8dJOfh5WWKo-yath-9" target="zvgr8dJOfh5WWKo-yath-11" edge="1">
          <mxGeometry relative="1" as="geometry">
            <Array as="points">
              <mxPoint x="1790" y="734" />
              <mxPoint x="1790" y="734" />
            </Array>
          </mxGeometry>
        </mxCell>
        <mxCell id="OLOC-NxEUxymV9Qxgqwn-2" value="" style="edgeStyle=orthogonalEdgeStyle;rounded=0;orthogonalLoop=1;jettySize=auto;html=1;" parent="1" source="zvgr8dJOfh5WWKo-yath-9" target="OLOC-NxEUxymV9Qxgqwn-1" edge="1">
          <mxGeometry relative="1" as="geometry" />
        </mxCell>
        <mxCell id="zvgr8dJOfh5WWKo-yath-9" value="PILIHAN = 2" style="rhombus;whiteSpace=wrap;html=1;strokeWidth=2;fontSize=20;" parent="1" vertex="1">
          <mxGeometry x="363.75" y="652.5" width="177.5" height="162.5" as="geometry" />
        </mxCell>
        <mxCell id="zvgr8dJOfh5WWKo-yath-14" value="" style="edgeStyle=orthogonalEdgeStyle;rounded=0;orthogonalLoop=1;jettySize=auto;html=1;" parent="1" source="zvgr8dJOfh5WWKo-yath-11" target="zvgr8dJOfh5WWKo-yath-13" edge="1">
          <mxGeometry relative="1" as="geometry" />
        </mxCell>
        <mxCell id="zvgr8dJOfh5WWKo-yath-11" value="USERNAME :&lt;div style=&quot;font-size: 33px;&quot;&gt;PASSWORD :&lt;/div&gt;" style="shape=parallelogram;perimeter=parallelogramPerimeter;whiteSpace=wrap;html=1;fixedSize=1;strokeWidth=2;fontSize=33;" parent="1" vertex="1">
          <mxGeometry x="2157.51" y="640" width="330" height="156.25" as="geometry" />
        </mxCell>
        <mxCell id="zvgr8dJOfh5WWKo-yath-16" value="" style="edgeStyle=orthogonalEdgeStyle;rounded=0;orthogonalLoop=1;jettySize=auto;html=1;" parent="1" source="zvgr8dJOfh5WWKo-yath-13" target="zvgr8dJOfh5WWKo-yath-15" edge="1">
          <mxGeometry relative="1" as="geometry">
            <Array as="points">
              <mxPoint x="3337.51" y="1084.37" />
              <mxPoint x="3337.51" y="1084.37" />
            </Array>
          </mxGeometry>
        </mxCell>
        <mxCell id="W5-GPD6WuPdEDDvHQBN7-7" value="" style="edgeStyle=orthogonalEdgeStyle;rounded=0;orthogonalLoop=1;jettySize=auto;html=1;" parent="1" source="zvgr8dJOfh5WWKo-yath-13" target="W5-GPD6WuPdEDDvHQBN7-6" edge="1">
          <mxGeometry relative="1" as="geometry" />
        </mxCell>
        <mxCell id="zvgr8dJOfh5WWKo-yath-13" value="USERNAME == admin_netflix" style="rhombus;whiteSpace=wrap;html=1;strokeWidth=2;fontSize=20;" parent="1" vertex="1">
          <mxGeometry x="2203.13" y="984.37" width="238.75" height="200" as="geometry" />
        </mxCell>
        <mxCell id="zvgr8dJOfh5WWKo-yath-18" value="" style="edgeStyle=orthogonalEdgeStyle;rounded=0;orthogonalLoop=1;jettySize=auto;html=1;" parent="1" source="zvgr8dJOfh5WWKo-yath-15" target="zvgr8dJOfh5WWKo-yath-17" edge="1">
          <mxGeometry relative="1" as="geometry" />
        </mxCell>
        <mxCell id="zvgr8dJOfh5WWKo-yath-15" value="MENU ADMIN&lt;div style=&quot;font-size: 20px;&quot;&gt;&lt;br style=&quot;font-size: 20px;&quot;&gt;&lt;div style=&quot;font-size: 20px;&quot;&gt;1. TAMBAH DRAKOR&lt;/div&gt;&lt;div style=&quot;font-size: 20px;&quot;&gt;2. LIHAT DAFTAR DRAKOR&lt;/div&gt;&lt;div style=&quot;font-size: 20px;&quot;&gt;3. UPDATE DRAKOR&lt;/div&gt;&lt;div style=&quot;font-size: 20px;&quot;&gt;4. HAPUS DRAKOR&lt;/div&gt;&lt;div style=&quot;font-size: 20px;&quot;&gt;5. KELUAR&lt;/div&gt;&lt;/div&gt;" style="shape=parallelogram;perimeter=parallelogramPerimeter;whiteSpace=wrap;html=1;fixedSize=1;strokeWidth=2;fontSize=20;" parent="1" vertex="1">
          <mxGeometry x="4452.82" y="1000" width="316.24" height="170" as="geometry" />
        </mxCell>
        <mxCell id="zvgr8dJOfh5WWKo-yath-22" value="" style="edgeStyle=orthogonalEdgeStyle;rounded=0;orthogonalLoop=1;jettySize=auto;html=1;" parent="1" source="zvgr8dJOfh5WWKo-yath-17" target="zvgr8dJOfh5WWKo-yath-21" edge="1">
          <mxGeometry relative="1" as="geometry" />
        </mxCell>
        <mxCell id="zvgr8dJOfh5WWKo-yath-30" value="" style="edgeStyle=orthogonalEdgeStyle;rounded=0;orthogonalLoop=1;jettySize=auto;html=1;" parent="1" source="zvgr8dJOfh5WWKo-yath-17" target="zvgr8dJOfh5WWKo-yath-29" edge="1">
          <mxGeometry relative="1" as="geometry" />
        </mxCell>
        <mxCell id="zvgr8dJOfh5WWKo-yath-17" value="PILIHAN ADMIN == 1" style="rhombus;whiteSpace=wrap;html=1;strokeWidth=2;fontSize=17;" parent="1" vertex="1">
          <mxGeometry x="4520" y="1305" width="181.88" height="170" as="geometry" />
        </mxCell>
        <mxCell id="zvgr8dJOfh5WWKo-yath-26" value="" style="edgeStyle=orthogonalEdgeStyle;rounded=0;orthogonalLoop=1;jettySize=auto;html=1;" parent="1" source="zvgr8dJOfh5WWKo-yath-21" target="zvgr8dJOfh5WWKo-yath-25" edge="1">
          <mxGeometry relative="1" as="geometry" />
        </mxCell>
        <mxCell id="zvgr8dJOfh5WWKo-yath-32" value="" style="edgeStyle=orthogonalEdgeStyle;rounded=0;orthogonalLoop=1;jettySize=auto;html=1;" parent="1" source="zvgr8dJOfh5WWKo-yath-21" target="zvgr8dJOfh5WWKo-yath-31" edge="1">
          <mxGeometry relative="1" as="geometry" />
        </mxCell>
        <mxCell id="zvgr8dJOfh5WWKo-yath-21" value="PILIHAN ADMIN == 2" style="rhombus;whiteSpace=wrap;html=1;strokeWidth=2;fontSize=17;" parent="1" vertex="1">
          <mxGeometry x="4520" y="1555" width="181.88" height="170" as="geometry" />
        </mxCell>
        <mxCell id="zvgr8dJOfh5WWKo-yath-34" value="" style="edgeStyle=orthogonalEdgeStyle;rounded=0;orthogonalLoop=1;jettySize=auto;html=1;" parent="1" source="zvgr8dJOfh5WWKo-yath-25" target="zvgr8dJOfh5WWKo-yath-33" edge="1">
          <mxGeometry relative="1" as="geometry" />
        </mxCell>
        <mxCell id="zvgr8dJOfh5WWKo-yath-36" value="" style="edgeStyle=orthogonalEdgeStyle;rounded=0;orthogonalLoop=1;jettySize=auto;html=1;" parent="1" source="zvgr8dJOfh5WWKo-yath-25" target="zvgr8dJOfh5WWKo-yath-35" edge="1">
          <mxGeometry relative="1" as="geometry" />
        </mxCell>
        <mxCell id="zvgr8dJOfh5WWKo-yath-25" value="PILIHAN ADMIN == 3" style="rhombus;whiteSpace=wrap;html=1;strokeWidth=2;fontSize=17;" parent="1" vertex="1">
          <mxGeometry x="4520" y="1805" width="181.88" height="170" as="geometry" />
        </mxCell>
        <mxCell id="VcNXGOZonRETbu7tvdzP-1" style="edgeStyle=orthogonalEdgeStyle;rounded=0;orthogonalLoop=1;jettySize=auto;html=1;exitX=1;exitY=0.5;exitDx=0;exitDy=0;entryX=1;entryY=0.5;entryDx=0;entryDy=0;" edge="1" parent="1" source="zvgr8dJOfh5WWKo-yath-29" target="zvgr8dJOfh5WWKo-yath-15">
          <mxGeometry relative="1" as="geometry">
            <Array as="points">
              <mxPoint x="5480" y="1390" />
              <mxPoint x="5480" y="1085" />
            </Array>
          </mxGeometry>
        </mxCell>
        <mxCell id="zvgr8dJOfh5WWKo-yath-29" value="MENAMBAH DRAKOR" style="whiteSpace=wrap;html=1;strokeWidth=2;fontSize=27;" parent="1" vertex="1">
          <mxGeometry x="4832.82" y="1317.5" width="270" height="145" as="geometry" />
        </mxCell>
        <mxCell id="VcNXGOZonRETbu7tvdzP-2" style="edgeStyle=orthogonalEdgeStyle;rounded=0;orthogonalLoop=1;jettySize=auto;html=1;exitX=1;exitY=0.5;exitDx=0;exitDy=0;entryX=1;entryY=0.5;entryDx=0;entryDy=0;" edge="1" parent="1" source="zvgr8dJOfh5WWKo-yath-31" target="zvgr8dJOfh5WWKo-yath-15">
          <mxGeometry relative="1" as="geometry">
            <Array as="points">
              <mxPoint x="5480" y="1640" />
              <mxPoint x="5480" y="1085" />
            </Array>
          </mxGeometry>
        </mxCell>
        <mxCell id="zvgr8dJOfh5WWKo-yath-31" value="MELIHAT DRAKOR" style="whiteSpace=wrap;html=1;strokeWidth=2;fontSize=29;" parent="1" vertex="1">
          <mxGeometry x="4852.82" y="1567.5" width="280" height="145" as="geometry" />
        </mxCell>
        <mxCell id="VcNXGOZonRETbu7tvdzP-3" style="edgeStyle=orthogonalEdgeStyle;rounded=0;orthogonalLoop=1;jettySize=auto;html=1;exitX=1;exitY=0.5;exitDx=0;exitDy=0;entryX=1;entryY=0.5;entryDx=0;entryDy=0;" edge="1" parent="1" source="zvgr8dJOfh5WWKo-yath-33" target="zvgr8dJOfh5WWKo-yath-15">
          <mxGeometry relative="1" as="geometry">
            <Array as="points">
              <mxPoint x="5480" y="1890" />
              <mxPoint x="5480" y="1085" />
            </Array>
          </mxGeometry>
        </mxCell>
        <mxCell id="zvgr8dJOfh5WWKo-yath-33" value="MENG-UPDATE DRAKOR" style="whiteSpace=wrap;html=1;strokeWidth=2;fontSize=27;" parent="1" vertex="1">
          <mxGeometry x="4852.82" y="1807.5" width="310" height="165" as="geometry" />
        </mxCell>
        <mxCell id="zvgr8dJOfh5WWKo-yath-38" value="" style="edgeStyle=orthogonalEdgeStyle;rounded=0;orthogonalLoop=1;jettySize=auto;html=1;" parent="1" source="zvgr8dJOfh5WWKo-yath-35" target="zvgr8dJOfh5WWKo-yath-37" edge="1">
          <mxGeometry relative="1" as="geometry" />
        </mxCell>
        <mxCell id="zvgr8dJOfh5WWKo-yath-40" value="" style="edgeStyle=orthogonalEdgeStyle;rounded=0;orthogonalLoop=1;jettySize=auto;html=1;" parent="1" source="zvgr8dJOfh5WWKo-yath-35" target="zvgr8dJOfh5WWKo-yath-39" edge="1">
          <mxGeometry relative="1" as="geometry" />
        </mxCell>
        <mxCell id="zvgr8dJOfh5WWKo-yath-35" value="PILIHAN ADMIN == 4" style="rhombus;whiteSpace=wrap;html=1;strokeWidth=2;fontSize=17;" parent="1" vertex="1">
          <mxGeometry x="4520" y="2055" width="181.88" height="170" as="geometry" />
        </mxCell>
        <mxCell id="VcNXGOZonRETbu7tvdzP-5" style="edgeStyle=orthogonalEdgeStyle;rounded=0;orthogonalLoop=1;jettySize=auto;html=1;exitX=1;exitY=0.5;exitDx=0;exitDy=0;entryX=1;entryY=0.5;entryDx=0;entryDy=0;" edge="1" parent="1" source="zvgr8dJOfh5WWKo-yath-37" target="zvgr8dJOfh5WWKo-yath-15">
          <mxGeometry relative="1" as="geometry">
            <Array as="points">
              <mxPoint x="5480" y="2140" />
              <mxPoint x="5480" y="1085" />
            </Array>
          </mxGeometry>
        </mxCell>
        <mxCell id="zvgr8dJOfh5WWKo-yath-37" value="MENGHAPUS DRAKOR" style="whiteSpace=wrap;html=1;strokeWidth=2;fontSize=29;" parent="1" vertex="1">
          <mxGeometry x="4912.82" y="2057.5" width="330" height="165" as="geometry" />
        </mxCell>
        <mxCell id="zvgr8dJOfh5WWKo-yath-42" value="" style="edgeStyle=orthogonalEdgeStyle;rounded=0;orthogonalLoop=1;jettySize=auto;html=1;" parent="1" source="zvgr8dJOfh5WWKo-yath-39" edge="1">
          <mxGeometry relative="1" as="geometry">
            <mxPoint x="4912.82" y="2390" as="targetPoint" />
          </mxGeometry>
        </mxCell>
        <mxCell id="zvgr8dJOfh5WWKo-yath-44" value="" style="edgeStyle=orthogonalEdgeStyle;rounded=0;orthogonalLoop=1;jettySize=auto;html=1;" parent="1" source="zvgr8dJOfh5WWKo-yath-39" target="zvgr8dJOfh5WWKo-yath-43" edge="1">
          <mxGeometry relative="1" as="geometry" />
        </mxCell>
        <mxCell id="zvgr8dJOfh5WWKo-yath-39" value="PILIHAN ADMIN == 5" style="rhombus;whiteSpace=wrap;html=1;strokeWidth=2;fontSize=17;" parent="1" vertex="1">
          <mxGeometry x="4520" y="2305" width="181.88" height="170" as="geometry" />
        </mxCell>
        <mxCell id="W5-GPD6WuPdEDDvHQBN7-26" style="edgeStyle=orthogonalEdgeStyle;rounded=0;orthogonalLoop=1;jettySize=auto;html=1;exitX=1;exitY=0.5;exitDx=0;exitDy=0;entryX=1;entryY=0.5;entryDx=0;entryDy=0;" parent="1" target="zvgr8dJOfh5WWKo-yath-2" edge="1">
          <mxGeometry relative="1" as="geometry">
            <mxPoint x="5302.82" y="2390" as="sourcePoint" />
            <Array as="points">
              <mxPoint x="5650" y="2390" />
              <mxPoint x="5650" y="252" />
            </Array>
          </mxGeometry>
        </mxCell>
        <mxCell id="W5-GPD6WuPdEDDvHQBN7-23" style="edgeStyle=orthogonalEdgeStyle;rounded=0;orthogonalLoop=1;jettySize=auto;html=1;exitX=0;exitY=0.5;exitDx=0;exitDy=0;entryX=0;entryY=0.5;entryDx=0;entryDy=0;" parent="1" source="zvgr8dJOfh5WWKo-yath-43" target="zvgr8dJOfh5WWKo-yath-15" edge="1">
          <mxGeometry relative="1" as="geometry">
            <Array as="points">
              <mxPoint x="4270" y="2728" />
              <mxPoint x="4270" y="1085" />
            </Array>
          </mxGeometry>
        </mxCell>
        <mxCell id="zvgr8dJOfh5WWKo-yath-43" value="PILIHAN TIDAK VALID" style="shape=parallelogram;perimeter=parallelogramPerimeter;whiteSpace=wrap;html=1;fixedSize=1;strokeWidth=2;fontSize=36;" parent="1" vertex="1">
          <mxGeometry x="4370" y="2625" width="481.88" height="205" as="geometry" />
        </mxCell>
        <mxCell id="zvgr8dJOfh5WWKo-yath-48" value="" style="edgeStyle=orthogonalEdgeStyle;rounded=0;orthogonalLoop=1;jettySize=auto;html=1;" parent="1" source="zvgr8dJOfh5WWKo-yath-45" target="zvgr8dJOfh5WWKo-yath-47" edge="1">
          <mxGeometry relative="1" as="geometry" />
        </mxCell>
        <mxCell id="zvgr8dJOfh5WWKo-yath-45" value="MENU PENGGUNA&lt;div style=&quot;font-size: 31px;&quot;&gt;&lt;br style=&quot;font-size: 31px;&quot;&gt;&lt;/div&gt;&lt;div style=&quot;font-size: 31px;&quot;&gt;1. LIHAT DAFTAR DRAKOR&lt;/div&gt;&lt;div style=&quot;font-size: 31px;&quot;&gt;2. KELUAR&lt;/div&gt;" style="shape=parallelogram;perimeter=parallelogramPerimeter;whiteSpace=wrap;html=1;fixedSize=1;strokeWidth=2;fontSize=31;" parent="1" vertex="1">
          <mxGeometry x="2950.01" y="1250" width="445.01" height="220" as="geometry" />
        </mxCell>
        <mxCell id="zvgr8dJOfh5WWKo-yath-52" value="" style="edgeStyle=orthogonalEdgeStyle;rounded=0;orthogonalLoop=1;jettySize=auto;html=1;" parent="1" source="zvgr8dJOfh5WWKo-yath-47" target="zvgr8dJOfh5WWKo-yath-51" edge="1">
          <mxGeometry relative="1" as="geometry" />
        </mxCell>
        <mxCell id="zvgr8dJOfh5WWKo-yath-54" value="" style="edgeStyle=orthogonalEdgeStyle;rounded=0;orthogonalLoop=1;jettySize=auto;html=1;" parent="1" source="zvgr8dJOfh5WWKo-yath-47" target="zvgr8dJOfh5WWKo-yath-53" edge="1">
          <mxGeometry relative="1" as="geometry" />
        </mxCell>
        <mxCell id="zvgr8dJOfh5WWKo-yath-47" value="PILIHAN PENGGUNA == 1" style="rhombus;whiteSpace=wrap;html=1;strokeWidth=2;fontSize=20;" parent="1" vertex="1">
          <mxGeometry x="3035" y="1650" width="275" height="230" as="geometry" />
        </mxCell>
        <mxCell id="W5-GPD6WuPdEDDvHQBN7-27" style="edgeStyle=orthogonalEdgeStyle;rounded=0;orthogonalLoop=1;jettySize=auto;html=1;exitX=1;exitY=0.5;exitDx=0;exitDy=0;entryX=1;entryY=0.5;entryDx=0;entryDy=0;" parent="1" source="zvgr8dJOfh5WWKo-yath-51" target="zvgr8dJOfh5WWKo-yath-45" edge="1">
          <mxGeometry relative="1" as="geometry">
            <Array as="points">
              <mxPoint x="4040" y="1765" />
              <mxPoint x="4040" y="1360" />
            </Array>
          </mxGeometry>
        </mxCell>
        <mxCell id="zvgr8dJOfh5WWKo-yath-51" value="MELIHAT DRAKOR" style="whiteSpace=wrap;html=1;strokeWidth=2;fontSize=34;" parent="1" vertex="1">
          <mxGeometry x="3537.51" y="1682.5" width="340.01" height="165" as="geometry" />
        </mxCell>
        <mxCell id="zvgr8dJOfh5WWKo-yath-58" value="" style="edgeStyle=orthogonalEdgeStyle;rounded=0;orthogonalLoop=1;jettySize=auto;html=1;" parent="1" source="zvgr8dJOfh5WWKo-yath-53" target="zvgr8dJOfh5WWKo-yath-57" edge="1">
          <mxGeometry relative="1" as="geometry" />
        </mxCell>
        <mxCell id="zyZw204zuNDirV1oMJwj-2" style="edgeStyle=orthogonalEdgeStyle;rounded=0;orthogonalLoop=1;jettySize=auto;html=1;exitX=1;exitY=0.5;exitDx=0;exitDy=0;entryX=0;entryY=0.5;entryDx=0;entryDy=0;" parent="1" source="zvgr8dJOfh5WWKo-yath-53" target="zyZw204zuNDirV1oMJwj-1" edge="1">
          <mxGeometry relative="1" as="geometry" />
        </mxCell>
        <mxCell id="zvgr8dJOfh5WWKo-yath-53" value="PILIHAN PENGGUNA == 2" style="rhombus;whiteSpace=wrap;html=1;strokeWidth=2;fontSize=20;" parent="1" vertex="1">
          <mxGeometry x="3035" y="1960" width="275" height="230" as="geometry" />
        </mxCell>
        <mxCell id="W5-GPD6WuPdEDDvHQBN7-37" style="edgeStyle=orthogonalEdgeStyle;rounded=0;orthogonalLoop=1;jettySize=auto;html=1;exitX=0;exitY=0.5;exitDx=0;exitDy=0;entryX=0;entryY=0.5;entryDx=0;entryDy=0;" parent="1" source="zvgr8dJOfh5WWKo-yath-57" target="zvgr8dJOfh5WWKo-yath-45" edge="1">
          <mxGeometry relative="1" as="geometry">
            <Array as="points">
              <mxPoint x="2770" y="2538" />
              <mxPoint x="2770" y="1360" />
            </Array>
          </mxGeometry>
        </mxCell>
        <mxCell id="zvgr8dJOfh5WWKo-yath-57" value="PILIHAN TIDAK VALID" style="shape=parallelogram;perimeter=parallelogramPerimeter;whiteSpace=wrap;html=1;fixedSize=1;strokeWidth=2;fontSize=36;" parent="1" vertex="1">
          <mxGeometry x="2950" y="2410" width="445.01" height="255" as="geometry" />
        </mxCell>
        <mxCell id="OLOC-NxEUxymV9Qxgqwn-4" value="" style="edgeStyle=orthogonalEdgeStyle;rounded=0;orthogonalLoop=1;jettySize=auto;html=1;" parent="1" source="OLOC-NxEUxymV9Qxgqwn-1" target="OLOC-NxEUxymV9Qxgqwn-3" edge="1">
          <mxGeometry relative="1" as="geometry" />
        </mxCell>
        <mxCell id="OLOC-NxEUxymV9Qxgqwn-6" value="" style="edgeStyle=orthogonalEdgeStyle;rounded=0;orthogonalLoop=1;jettySize=auto;html=1;" parent="1" source="OLOC-NxEUxymV9Qxgqwn-1" target="OLOC-NxEUxymV9Qxgqwn-5" edge="1">
          <mxGeometry relative="1" as="geometry" />
        </mxCell>
        <mxCell id="OLOC-NxEUxymV9Qxgqwn-1" value="PILIHAN == 3" style="rhombus;whiteSpace=wrap;html=1;strokeWidth=2;fontSize=20;" parent="1" vertex="1">
          <mxGeometry x="363.75" y="895" width="177.5" height="162.5" as="geometry" />
        </mxCell>
        <mxCell id="OLOC-NxEUxymV9Qxgqwn-3" value="TERIMA KASIH TELAH MENGGUNAKAN APLIKASI INI!" style="shape=parallelogram;perimeter=parallelogramPerimeter;whiteSpace=wrap;html=1;fixedSize=1;strokeWidth=2;fontSize=30;" parent="1" vertex="1">
          <mxGeometry x="690" y="859.38" width="490" height="233.75" as="geometry" />
        </mxCell>
        <mxCell id="W5-GPD6WuPdEDDvHQBN7-31" style="edgeStyle=orthogonalEdgeStyle;rounded=0;orthogonalLoop=1;jettySize=auto;html=1;exitX=0;exitY=0.5;exitDx=0;exitDy=0;entryX=0;entryY=0.5;entryDx=0;entryDy=0;" parent="1" source="OLOC-NxEUxymV9Qxgqwn-5" target="zvgr8dJOfh5WWKo-yath-2" edge="1">
          <mxGeometry relative="1" as="geometry">
            <Array as="points">
              <mxPoint x="100" y="1351" />
              <mxPoint x="100" y="253" />
            </Array>
          </mxGeometry>
        </mxCell>
        <mxCell id="OLOC-NxEUxymV9Qxgqwn-5" value="PILIHAN TIDAK VALID!" style="shape=parallelogram;perimeter=parallelogramPerimeter;whiteSpace=wrap;html=1;fixedSize=1;strokeWidth=2;fontSize=30;" parent="1" vertex="1">
          <mxGeometry x="223.75" y="1220" width="457.5" height="261.25" as="geometry" />
        </mxCell>
        <mxCell id="W5-GPD6WuPdEDDvHQBN7-5" value="END" style="strokeWidth=2;html=1;shape=mxgraph.flowchart.terminator;whiteSpace=wrap;fontStyle=1;fontSize=20;" parent="1" vertex="1">
          <mxGeometry x="360" y="3180" width="155" height="70" as="geometry" />
        </mxCell>
        <mxCell id="W5-GPD6WuPdEDDvHQBN7-13" value="" style="edgeStyle=orthogonalEdgeStyle;rounded=0;orthogonalLoop=1;jettySize=auto;html=1;" parent="1" source="W5-GPD6WuPdEDDvHQBN7-6" target="W5-GPD6WuPdEDDvHQBN7-12" edge="1">
          <mxGeometry relative="1" as="geometry" />
        </mxCell>
        <mxCell id="W5-GPD6WuPdEDDvHQBN7-36" style="edgeStyle=orthogonalEdgeStyle;rounded=0;orthogonalLoop=1;jettySize=auto;html=1;exitX=1;exitY=0.5;exitDx=0;exitDy=0;entryX=0;entryY=0.5;entryDx=0;entryDy=0;" parent="1" source="W5-GPD6WuPdEDDvHQBN7-6" target="zvgr8dJOfh5WWKo-yath-45" edge="1">
          <mxGeometry relative="1" as="geometry" />
        </mxCell>
        <mxCell id="W5-GPD6WuPdEDDvHQBN7-6" value="USERNAME == (INPUT DI REGISTER)" style="rhombus;whiteSpace=wrap;html=1;strokeWidth=2;fontSize=17;" parent="1" vertex="1">
          <mxGeometry x="2203.13" y="1264.37" width="238.75" height="200" as="geometry" />
        </mxCell>
        <mxCell id="VcNXGOZonRETbu7tvdzP-9" style="edgeStyle=orthogonalEdgeStyle;rounded=0;orthogonalLoop=1;jettySize=auto;html=1;exitX=0.5;exitY=1;exitDx=0;exitDy=0;entryX=1;entryY=0.5;entryDx=0;entryDy=0;" edge="1" parent="1" source="W5-GPD6WuPdEDDvHQBN7-12" target="zvgr8dJOfh5WWKo-yath-2">
          <mxGeometry relative="1" as="geometry">
            <Array as="points">
              <mxPoint x="2323" y="3070" />
              <mxPoint x="5650" y="3070" />
              <mxPoint x="5650" y="252" />
            </Array>
          </mxGeometry>
        </mxCell>
        <mxCell id="W5-GPD6WuPdEDDvHQBN7-12" value="GAGAL LOGIN!&amp;nbsp;&lt;div style=&quot;font-size: 30px;&quot;&gt;TOLONG PERIKSA KEMBALI USERNAME DAN PASSWORD ANDA!&lt;/div&gt;" style="shape=parallelogram;perimeter=parallelogramPerimeter;whiteSpace=wrap;html=1;fixedSize=1;strokeWidth=2;fontSize=30;" parent="1" vertex="1">
          <mxGeometry x="2088.7700000000004" y="1680" width="467.49" height="235.63" as="geometry" />
        </mxCell>
        <mxCell id="W5-GPD6WuPdEDDvHQBN7-32" style="edgeStyle=orthogonalEdgeStyle;rounded=0;orthogonalLoop=1;jettySize=auto;html=1;exitX=0.5;exitY=1;exitDx=0;exitDy=0;entryX=0.5;entryY=0;entryDx=0;entryDy=0;entryPerimeter=0;" parent="1" source="OLOC-NxEUxymV9Qxgqwn-3" target="W5-GPD6WuPdEDDvHQBN7-5" edge="1">
          <mxGeometry relative="1" as="geometry" />
        </mxCell>
        <mxCell id="W5-GPD6WuPdEDDvHQBN7-33" value="BERHASIL LOGOUT" style="shape=parallelogram;perimeter=parallelogramPerimeter;whiteSpace=wrap;html=1;fixedSize=1;strokeWidth=2;fontSize=35;" parent="1" vertex="1">
          <mxGeometry x="4900" y="2305" width="420" height="175" as="geometry" />
        </mxCell>
        <mxCell id="VcNXGOZonRETbu7tvdzP-7" style="edgeStyle=orthogonalEdgeStyle;rounded=0;orthogonalLoop=1;jettySize=auto;html=1;exitX=0.5;exitY=1;exitDx=0;exitDy=0;entryX=1;entryY=0.5;entryDx=0;entryDy=0;" edge="1" parent="1" source="zyZw204zuNDirV1oMJwj-1" target="zvgr8dJOfh5WWKo-yath-2">
          <mxGeometry relative="1" as="geometry">
            <Array as="points">
              <mxPoint x="3755" y="2950" />
              <mxPoint x="5650" y="2950" />
              <mxPoint x="5650" y="252" />
            </Array>
          </mxGeometry>
        </mxCell>
        <mxCell id="zyZw204zuNDirV1oMJwj-1" value="BERHASIL LOGOUT" style="shape=parallelogram;perimeter=parallelogramPerimeter;whiteSpace=wrap;html=1;fixedSize=1;strokeWidth=2;fontSize=40;" parent="1" vertex="1">
          <mxGeometry x="3530" y="1975" width="450" height="195" as="geometry" />
        </mxCell>
        <mxCell id="zyZw204zuNDirV1oMJwj-3" value="" style="edgeStyle=orthogonalEdgeStyle;rounded=0;orthogonalLoop=1;jettySize=auto;html=1;" parent="1" edge="1">
          <mxGeometry relative="1" as="geometry">
            <mxPoint x="440" y="305" as="sourcePoint" />
            <mxPoint x="599" y="305" as="targetPoint" />
          </mxGeometry>
        </mxCell>
        <mxCell id="zyZw204zuNDirV1oMJwj-4" value="TRUE" style="text;html=1;align=center;verticalAlign=middle;resizable=0;points=[];autosize=1;strokeColor=none;fillColor=none;" parent="1" vertex="1">
          <mxGeometry x="580" y="458" width="60" height="30" as="geometry" />
        </mxCell>
        <mxCell id="zyZw204zuNDirV1oMJwj-5" value="FALSE" style="text;html=1;align=center;verticalAlign=middle;resizable=0;points=[];autosize=1;strokeColor=none;fillColor=none;" parent="1" vertex="1">
          <mxGeometry x="450" y="598" width="60" height="30" as="geometry" />
        </mxCell>
        <mxCell id="zyZw204zuNDirV1oMJwj-6" value="" style="edgeStyle=orthogonalEdgeStyle;rounded=0;orthogonalLoop=1;jettySize=auto;html=1;" parent="1" edge="1">
          <mxGeometry relative="1" as="geometry">
            <mxPoint x="600" y="426.88" as="sourcePoint" />
            <mxPoint x="710" y="426.88" as="targetPoint" />
          </mxGeometry>
        </mxCell>
        <mxCell id="zyZw204zuNDirV1oMJwj-7" value="FALSE" style="text;html=1;align=center;verticalAlign=middle;resizable=0;points=[];autosize=1;strokeColor=none;fillColor=none;" parent="1" vertex="1">
          <mxGeometry x="450" y="840" width="60" height="30" as="geometry" />
        </mxCell>
        <mxCell id="zyZw204zuNDirV1oMJwj-8" value="TRUE" style="text;html=1;align=center;verticalAlign=middle;resizable=0;points=[];autosize=1;strokeColor=none;fillColor=none;" parent="1" vertex="1">
          <mxGeometry x="580" y="703.12" width="60" height="30" as="geometry" />
        </mxCell>
        <mxCell id="zyZw204zuNDirV1oMJwj-9" value="TRUE" style="text;html=1;align=center;verticalAlign=middle;resizable=0;points=[];autosize=1;strokeColor=none;fillColor=none;" parent="1" vertex="1">
          <mxGeometry x="580" y="940" width="60" height="30" as="geometry" />
        </mxCell>
        <mxCell id="zyZw204zuNDirV1oMJwj-10" value="FALSE" style="text;html=1;align=center;verticalAlign=middle;resizable=0;points=[];autosize=1;strokeColor=none;fillColor=none;" parent="1" vertex="1">
          <mxGeometry x="450" y="1120" width="60" height="30" as="geometry" />
        </mxCell>
        <mxCell id="zyZw204zuNDirV1oMJwj-11" value="" style="edgeStyle=orthogonalEdgeStyle;rounded=0;orthogonalLoop=1;jettySize=auto;html=1;" parent="1" edge="1">
          <mxGeometry relative="1" as="geometry">
            <mxPoint x="1110" y="1093.13" as="sourcePoint" />
            <mxPoint x="1269" y="1093.13" as="targetPoint" />
          </mxGeometry>
        </mxCell>
        <mxCell id="zyZw204zuNDirV1oMJwj-12" value="" style="edgeStyle=orthogonalEdgeStyle;rounded=0;orthogonalLoop=1;jettySize=auto;html=1;" parent="1" edge="1">
          <mxGeometry relative="1" as="geometry">
            <mxPoint x="600" y="1481.25" as="sourcePoint" />
            <mxPoint x="759" y="1481.25" as="targetPoint" />
          </mxGeometry>
        </mxCell>
        <mxCell id="zyZw204zuNDirV1oMJwj-13" value="" style="edgeStyle=orthogonalEdgeStyle;rounded=0;orthogonalLoop=1;jettySize=auto;html=1;" parent="1" edge="1">
          <mxGeometry relative="1" as="geometry">
            <mxPoint x="2020" y="640.0000000000001" as="sourcePoint" />
            <mxPoint x="2179" y="640.0000000000001" as="targetPoint" />
          </mxGeometry>
        </mxCell>
        <mxCell id="zyZw204zuNDirV1oMJwj-14" value="TRUE" style="text;html=1;align=center;verticalAlign=middle;resizable=0;points=[];autosize=1;strokeColor=none;fillColor=none;" parent="1" vertex="1">
          <mxGeometry x="2520" y="1050" width="60" height="30" as="geometry" />
        </mxCell>
        <mxCell id="zyZw204zuNDirV1oMJwj-15" value="TRUE" style="text;html=1;align=center;verticalAlign=middle;resizable=0;points=[];autosize=1;strokeColor=none;fillColor=none;" parent="1" vertex="1">
          <mxGeometry x="2520" y="1335.63" width="60" height="30" as="geometry" />
        </mxCell>
        <mxCell id="zyZw204zuNDirV1oMJwj-16" value="FALSE" style="text;html=1;align=center;verticalAlign=middle;resizable=0;points=[];autosize=1;strokeColor=none;fillColor=none;" parent="1" vertex="1">
          <mxGeometry x="2320" y="1210" width="60" height="30" as="geometry" />
        </mxCell>
        <mxCell id="zyZw204zuNDirV1oMJwj-17" value="FALSE" style="text;html=1;align=center;verticalAlign=middle;resizable=0;points=[];autosize=1;strokeColor=none;fillColor=none;" parent="1" vertex="1">
          <mxGeometry x="2320" y="1537.5" width="60" height="30" as="geometry" />
        </mxCell>
        <mxCell id="zyZw204zuNDirV1oMJwj-18" value="" style="edgeStyle=orthogonalEdgeStyle;rounded=0;orthogonalLoop=1;jettySize=auto;html=1;" parent="1" edge="1">
          <mxGeometry relative="1" as="geometry">
            <mxPoint x="2470.5" y="1915.63" as="sourcePoint" />
            <mxPoint x="2629.5" y="1915.63" as="targetPoint" />
          </mxGeometry>
        </mxCell>
        <mxCell id="zyZw204zuNDirV1oMJwj-19" value="" style="edgeStyle=orthogonalEdgeStyle;rounded=0;orthogonalLoop=1;jettySize=auto;html=1;" parent="1" edge="1">
          <mxGeometry relative="1" as="geometry">
            <mxPoint x="3900" y="2170" as="sourcePoint" />
            <mxPoint x="4059" y="2170" as="targetPoint" />
          </mxGeometry>
        </mxCell>
        <mxCell id="zyZw204zuNDirV1oMJwj-20" value="TRUE" style="text;html=1;align=center;verticalAlign=middle;resizable=0;points=[];autosize=1;strokeColor=none;fillColor=none;" parent="1" vertex="1">
          <mxGeometry x="3380" y="1730" width="60" height="30" as="geometry" />
        </mxCell>
        <mxCell id="zyZw204zuNDirV1oMJwj-21" value="TRUE" style="text;html=1;align=center;verticalAlign=middle;resizable=0;points=[];autosize=1;strokeColor=none;fillColor=none;" parent="1" vertex="1">
          <mxGeometry x="3390" y="2040" width="60" height="30" as="geometry" />
        </mxCell>
        <mxCell id="zyZw204zuNDirV1oMJwj-22" value="FALSE" style="text;html=1;align=center;verticalAlign=middle;resizable=0;points=[];autosize=1;strokeColor=none;fillColor=none;" parent="1" vertex="1">
          <mxGeometry x="3170" y="1900" width="60" height="30" as="geometry" />
        </mxCell>
        <mxCell id="zyZw204zuNDirV1oMJwj-23" value="FALSE" style="text;html=1;align=center;verticalAlign=middle;resizable=0;points=[];autosize=1;strokeColor=none;fillColor=none;" parent="1" vertex="1">
          <mxGeometry x="3170" y="2275" width="60" height="30" as="geometry" />
        </mxCell>
        <mxCell id="zyZw204zuNDirV1oMJwj-24" value="" style="edgeStyle=orthogonalEdgeStyle;rounded=0;orthogonalLoop=1;jettySize=auto;html=1;" parent="1" edge="1">
          <mxGeometry relative="1" as="geometry">
            <mxPoint x="3330" y="1480" as="sourcePoint" />
            <mxPoint x="3489" y="1480" as="targetPoint" />
          </mxGeometry>
        </mxCell>
        <mxCell id="zyZw204zuNDirV1oMJwj-25" value="" style="edgeStyle=orthogonalEdgeStyle;rounded=0;orthogonalLoop=1;jettySize=auto;html=1;" parent="1" edge="1">
          <mxGeometry relative="1" as="geometry">
            <mxPoint x="3320" y="2665" as="sourcePoint" />
            <mxPoint x="3479" y="2665" as="targetPoint" />
          </mxGeometry>
        </mxCell>
        <mxCell id="zyZw204zuNDirV1oMJwj-26" value="" style="edgeStyle=orthogonalEdgeStyle;rounded=0;orthogonalLoop=1;jettySize=auto;html=1;" parent="1" edge="1">
          <mxGeometry relative="1" as="geometry">
            <mxPoint x="4701.88" y="1170" as="sourcePoint" />
            <mxPoint x="4860.88" y="1170" as="targetPoint" />
          </mxGeometry>
        </mxCell>
        <mxCell id="zyZw204zuNDirV1oMJwj-27" value="" style="edgeStyle=orthogonalEdgeStyle;rounded=0;orthogonalLoop=1;jettySize=auto;html=1;" parent="1" edge="1">
          <mxGeometry relative="1" as="geometry">
            <mxPoint x="5250" y="2480" as="sourcePoint" />
            <mxPoint x="5409" y="2480" as="targetPoint" />
          </mxGeometry>
        </mxCell>
        <mxCell id="zyZw204zuNDirV1oMJwj-28" value="" style="edgeStyle=orthogonalEdgeStyle;rounded=0;orthogonalLoop=1;jettySize=auto;html=1;" parent="1" edge="1">
          <mxGeometry relative="1" as="geometry">
            <mxPoint x="4780" y="2828.18" as="sourcePoint" />
            <mxPoint x="4939" y="2828.18" as="targetPoint" />
          </mxGeometry>
        </mxCell>
        <mxCell id="zyZw204zuNDirV1oMJwj-29" value="TRUE" style="text;html=1;align=center;verticalAlign=middle;resizable=0;points=[];autosize=1;strokeColor=none;fillColor=none;" parent="1" vertex="1">
          <mxGeometry x="4730" y="1360" width="60" height="30" as="geometry" />
        </mxCell>
        <mxCell id="zyZw204zuNDirV1oMJwj-31" value="TRUE" style="text;html=1;align=center;verticalAlign=middle;resizable=0;points=[];autosize=1;strokeColor=none;fillColor=none;" parent="1" vertex="1">
          <mxGeometry x="4730" y="1610" width="60" height="30" as="geometry" />
        </mxCell>
        <mxCell id="zyZw204zuNDirV1oMJwj-32" value="TRUE" style="text;html=1;align=center;verticalAlign=middle;resizable=0;points=[];autosize=1;strokeColor=none;fillColor=none;" parent="1" vertex="1">
          <mxGeometry x="4730" y="1860" width="60" height="30" as="geometry" />
        </mxCell>
        <mxCell id="zyZw204zuNDirV1oMJwj-33" value="TRUE" style="text;html=1;align=center;verticalAlign=middle;resizable=0;points=[];autosize=1;strokeColor=none;fillColor=none;" parent="1" vertex="1">
          <mxGeometry x="4730" y="2110" width="60" height="30" as="geometry" />
        </mxCell>
        <mxCell id="zyZw204zuNDirV1oMJwj-34" value="TRUE" style="text;html=1;align=center;verticalAlign=middle;resizable=0;points=[];autosize=1;strokeColor=none;fillColor=none;" parent="1" vertex="1">
          <mxGeometry x="4740" y="2360" width="60" height="30" as="geometry" />
        </mxCell>
        <mxCell id="zyZw204zuNDirV1oMJwj-35" value="FALSE" style="text;html=1;align=center;verticalAlign=middle;resizable=0;points=[];autosize=1;strokeColor=none;fillColor=none;" parent="1" vertex="1">
          <mxGeometry x="4610" y="2000" width="60" height="30" as="geometry" />
        </mxCell>
        <mxCell id="zyZw204zuNDirV1oMJwj-36" value="FALSE" style="text;html=1;align=center;verticalAlign=middle;resizable=0;points=[];autosize=1;strokeColor=none;fillColor=none;" parent="1" vertex="1">
          <mxGeometry x="4610" y="2250" width="60" height="30" as="geometry" />
        </mxCell>
        <mxCell id="zyZw204zuNDirV1oMJwj-37" value="FALSE" style="text;html=1;align=center;verticalAlign=middle;resizable=0;points=[];autosize=1;strokeColor=none;fillColor=none;" parent="1" vertex="1">
          <mxGeometry x="4610" y="2522.5" width="60" height="30" as="geometry" />
        </mxCell>
      </root>
    </mxGraphModel>
  </diagram>
</mxfile>
